HIERARCHY
ROOT Hips
{
	OFFSET -35.298439 92.216103 -74.654198
	CHANNELS 6 Xposition Yposition Zposition Zrotation Yrotation Xrotation 
	JOINT LeftUpLeg
	{
		OFFSET 0.103462 1.857831 10.548502
		CHANNELS 3 Xrotation Yrotation Zrotation
		JOINT LeftLeg
		{
			OFFSET 43.500008 -0.000027 -0.000004
			CHANNELS 3 Xrotation Yrotation Zrotation
			JOINT LeftFoot
			{
				OFFSET 42.372200 0.000011 -0.000002
				CHANNELS 3 Xrotation Yrotation Zrotation
				JOINT LeftToe
				{
					OFFSET 17.299999 -0.000001 -0.000002
					CHANNELS 3 Xrotation Yrotation Zrotation
					End Site
					{
						OFFSET 0.000000 0.000000 0.000000
					}
				}
			}
		}
	}
	JOINT RightUpLeg
	{
		OFFSET 0.103458 1.857828 -10.548501
		CHANNELS 3 Xrotation Yrotation Zrotation
		JOINT RightLeg
		{
			OFFSET 43.500038 -0.000031 0.000011
			CHANNELS 3 Xrotation Yrotation Zrotation
			JOINT RightFoot
			{
				OFFSET 42.372257 -0.000004 0.000010
				CHANNELS 3 Xrotation Yrotation Zrotation
				JOINT RightToe
				{
					OFFSET 17.299994 -0.000005 0.000004
					CHANNELS 3 Xrotation Yrotation Zrotation
					End Site
					{
						OFFSET 0.000000 0.000000 0.000000
					}
				}
			}
		}
	}
	JOINT Spine
	{
		OFFSET 6.901966 -2.603733 0.000000
		CHANNELS 3 Xrotation Yrotation Zrotation
		JOINT Spine1
		{
			OFFSET 12.588101 0.000002 0.000000
			CHANNELS 3 Xrotation Yrotation Zrotation
			JOINT Spine2
			{
				OFFSET 12.343201 0.000004 -0.000002
				CHANNELS 3 Xrotation Yrotation Zrotation
				JOINT Neck
				{
					OFFSET 25.832895 -0.000004 0.000002
					CHANNELS 3 Xrotation Yrotation Zrotation
					JOINT Head
					{
						OFFSET 11.766604 0.000011 0.000001
						CHANNELS 3 Xrotation Yrotation Zrotation
						End Site
						{
							OFFSET 0.000000 0.000000 0.000000
						}
					}
				}
				JOINT LeftShoulder
				{
					OFFSET 19.745903 -1.480368 6.000108
					CHANNELS 3 Xrotation Yrotation Zrotation
					JOINT LeftArm
					{
						OFFSET 11.284126 -0.000007 -0.000022
						CHANNELS 3 Xrotation Yrotation Zrotation
						JOINT LeftForeArm
						{
							OFFSET 33.000053 0.000001 0.000028
							CHANNELS 3 Xrotation Yrotation Zrotation
							JOINT LeftHand
							{
								OFFSET 25.200005 0.000019 0.000013
								CHANNELS 3 Xrotation Yrotation Zrotation
								End Site
								{
									OFFSET 0.000000 0.000000 0.000000
								}
							}
						}
					}
				}
				JOINT RightShoulder
				{
					OFFSET 19.746094 -1.480373 -6.000072
					CHANNELS 3 Xrotation Yrotation Zrotation
					JOINT RightArm
					{
						OFFSET 11.284138 -0.000017 -0.000010
						CHANNELS 3 Xrotation Yrotation Zrotation
						JOINT RightForeArm
						{
							OFFSET 33.000092 0.000013 0.000009
							CHANNELS 3 Xrotation Yrotation Zrotation
							JOINT RightHand
							{
								OFFSET 25.199776 0.000139 0.000415
								CHANNELS 3 Xrotation Yrotation Zrotation
								End Site
								{
									OFFSET 0.000000 0.000000 0.000000
								}
							}
						}
					}
				}
			}
		}
	}
}
MOTION
Frames: 10
Frame Time: 0.033333
253.046600 83.456413 110.925697 92.544357 -1.638813 -69.062064 147.088165 -21.337716 171.932336 -50.169816 -0.125627 -7.194861 80.848184 2.788219 -9.817973 21.454560 0.003107 0.000016 -170.232903 19.777492 -166.690985 -21.959111 0.890245 5.092654 77.969560 3.998550 28.812753 21.454551 -0.003090 0.000002 8.658742 -1.188445 -0.115263 7.309347 -2.367189 -0.305269 6.990957 -2.369121 -0.290975 8.162558 0.743934 12.586632 -4.660399 -18.142671 17.441644 -161.378888 -67.714168 -20.586719 -7.455986 49.809240 14.398266 -24.408810 -14.003062 1.094976 12.989104 -6.526598 1.199217 -171.906859 77.972326 9.771777 -13.476008 -58.704813 -11.545613 -56.050250 16.873197 -2.081484 5.706248 4.076846 -33.162938 
249.563202 83.006233 110.295700 89.929228 -1.009915 -67.027399 148.033449 -18.448300 169.373023 -52.484806 -1.792874 -5.451776 83.346702 2.058286 -8.353612 21.454558 0.003108 0.000017 -172.476142 23.168703 -166.239332 -29.612231 -2.868256 5.808640 73.311917 5.045548 29.610950 21.454551 -0.003091 0.000000 8.857517 -1.792661 -0.097293 7.710845 -3.574776 -0.313823 7.392079 -3.576740 -0.292192 9.546394 0.465075 11.693047 -5.139846 -16.996499 16.328300 -161.338699 -66.899811 -20.638974 -6.716144 48.570319 17.741951 -25.197685 -13.977168 1.105605 10.487469 -5.811370 5.288361 -170.740345 77.538999 10.959212 -9.367517 -58.855672 -12.558268 -57.804212 17.728729 -2.203063 3.385621 5.881117 -40.464301 
246.129501 83.363022 109.491302 88.761833 -0.881320 -65.316587 150.189467 -16.701704 165.938531 -52.750879 -2.446030 -3.560216 85.654691 1.375477 -5.819794 21.454560 0.003110 0.000018 -177.212837 23.810193 -169.898756 -39.465352 -4.776878 11.470089 65.038475 0.703460 23.455057 21.454551 -0.003099 0.000005 9.065200 -2.029791 -0.008071 8.125447 -4.053894 -0.158658 7.806478 -4.054913 -0.134147 11.490497 -0.212573 10.805532 -5.181733 -15.653477 15.073905 -160.617485 -66.419690 -21.393281 -7.433141 48.126145 19.795908 -25.192115 -13.788542 1.093464 8.951010 -4.769711 6.941111 -171.442270 77.211511 10.242400 -5.452008 -58.850672 -14.718168 -57.228734 18.228493 -2.216062 1.146087 8.209510 -40.877705 
242.862305 84.396309 108.479202 88.623685 -1.076306 -62.884158 152.805306 -14.808402 164.011516 -51.077620 -2.407786 -2.090244 87.049286 0.827465 -3.536642 21.454562 0.003113 0.000019 177.591803 22.687187 -171.807384 -48.421503 -4.463048 15.965111 59.088793 -6.608643 11.652736 21.454553 -0.003087 0.000001 9.237063 -1.975052 -0.098005 8.472137 -3.937532 -0.340488 8.153231 -3.939645 -0.316680 13.627237 -0.392879 9.823053 -4.828340 -14.430871 13.740428 -160.509377 -66.353396 -21.506360 -8.107873 48.312944 20.648843 -25.350783 -13.691749 1.089792 9.191962 -3.291577 7.258715 -170.104741 77.216682 11.606773 -2.627693 -59.209489 -17.029145 -55.461655 18.302400 -2.157353 1.792019 8.250616 -35.832327 
239.889694 85.805229 107.118797 88.583715 -1.660477 -59.104236 155.938369 -12.049401 166.022542 -47.752824 -2.995726 -1.847401 87.381875 0.936587 -2.106930 21.454560 0.003105 0.000017 173.953225 20.636896 -171.864075 -55.557391 -2.639895 16.470214 64.106120 -7.298206 12.075903 21.454545 -0.003090 -0.000003 9.490825 -1.796890 -0.455189 8.989413 -3.552914 -1.049091 8.670704 -3.559324 -1.027584 15.491578 0.684076 8.896449 -4.214924 -13.352746 12.510636 -161.576021 -66.711100 -20.395372 -9.348488 48.595413 20.779558 -24.983606 -13.495319 1.071435 9.753271 -2.788158 6.505687 -168.238911 76.331421 13.511411 -0.040354 -58.516956 -19.083455 -53.573057 17.652178 -2.047112 3.717673 4.812571 -32.156527 
236.925797 87.403793 105.658798 88.622101 -1.814765 -55.217749 159.381317 -9.121905 168.084521 -43.147364 -2.980518 -1.718437 86.959421 1.026304 -1.102540 21.454558 0.003111 0.000017 169.791208 18.411297 -169.763327 -60.347044 -1.692316 13.914069 67.644677 -6.321682 10.492111 21.454555 -0.003103 0.000004 9.566309 -1.612047 -0.875421 9.149053 -3.149750 -1.876242 8.830627 -3.161172 -1.857186 17.399185 2.181859 7.775779 -3.109404 -12.040000 10.943000 -162.090088 -67.800931 -19.849428 -10.647006 49.732520 20.368280 -24.547363 -13.256428 1.049411 9.427724 -2.771325 7.209786 -164.868035 75.390009 16.961192 2.805130 -57.765376 -21.880122 -51.609913 17.405028 -1.963750 6.027096 -2.401814 -31.400125 
233.960098 88.963158 104.030403 89.069710 -1.806099 -52.546121 163.382810 -7.881000 168.276504 -37.977590 -3.507514 -0.797547 86.119000 0.687163 0.365877 21.454560 0.003107 0.000018 164.972373 15.580701 -169.614784 -62.462702 0.307950 10.975207 68.104991 -4.821223 8.904510 21.454551 -0.003101 -0.000002 9.429194 -1.449038 -1.133683 8.877350 -2.806814 -2.375827 8.559135 -2.821240 -2.358842 19.603877 3.898319 6.463869 -1.385330 -10.198473 8.960518 -161.113111 -69.195772 -20.842085 -11.300257 51.313172 20.128154 -25.029290 -13.428641 1.067888 8.787896 -1.508344 9.164249 -161.780530 74.667136 20.128043 6.815183 -56.070423 -25.346378 -50.885490 16.470906 -1.877216 6.704275 -11.080993 -32.009770 
230.905594 90.075523 102.323097 89.691756 -1.529188 -50.178668 166.915630 -7.004706 168.247503 -33.422493 -4.117623 0.244738 85.586956 0.264017 1.744376 21.454558 0.003114 0.000018 160.051331 12.670304 -168.890361 -62.042822 1.781304 8.446680 68.163355 -3.443618 7.742614 21.454545 -0.003095 -0.000004 9.140061 -1.264924 -1.463061 8.301047 -2.421684 -3.013665 7.983115 -2.439973 -2.998998 22.065783 5.012647 4.819522 0.392828 -8.268561 6.598549 -161.935002 -70.247977 -19.980757 -10.175040 52.122154 21.348236 -26.635108 -13.906286 1.124628 7.990349 -0.010847 10.091111 -159.362684 73.797284 22.617413 11.524269 -52.402471 -29.339255 -52.396843 14.980603 -1.827759 5.791135 -18.122737 -27.955040 
227.688507 90.798210 100.583000 90.031995 -1.524799 -47.634562 170.510413 -5.681589 169.434508 -29.337459 -4.187643 0.616806 85.397951 0.155000 2.449126 21.454558 0.003109 0.000017 156.365256 10.221507 -167.457469 -58.852168 2.825402 5.876704 68.726238 -1.967963 6.809872 21.454551 -0.003099 0.000001 8.985743 -1.052082 -1.907459 7.993296 -1.970023 -3.883487 7.675752 -1.993542 -3.871537 23.881282 5.952458 2.944348 1.606129 -7.121651 4.221843 -163.523185 -71.730660 -18.329393 -8.556718 52.939929 22.445453 -29.242072 -14.783987 1.227508 7.321619 2.901222 11.580698 -154.307374 73.658707 27.802403 16.091478 -48.380231 -34.013246 -57.000446 13.485060 -1.886438 3.356732 -20.223377 -17.557985 
224.328598 90.988533 98.825546 89.566948 -1.511148 -45.190222 174.370782 -3.854205 170.804112 -26.133029 -3.930239 0.789794 85.784929 0.119444 2.910098 21.454557 0.003104 0.000016 153.923326 8.490904 -165.937014 -53.209018 3.192510 3.895871 69.185090 -0.775676 6.223958 21.454555 -0.003101 0.000002 8.992999 -1.006480 -2.463665 8.014386 -1.840079 -4.991641 7.697407 -1.870295 -4.980476 25.048447 7.284995 1.363100 3.290347 -7.028588 2.319744 -165.463108 -73.618449 -16.322258 -6.727292 53.301960 24.454879 -32.426183 -15.531466 1.339442 6.652952 4.097087 11.066843 -150.694669 73.389495 31.512283 19.823449 -43.649929 -36.995358 -63.227532 11.924026 -2.010677 -1.397845 -20.860905 -4.540078 
